inDegrees=yes
name=ik_S51_A05_T03
DataType=double
version=3
OpenSimVersion=4.3-2021-08-27-4bc7ad9
endheader
time	pelvis_tilt	pelvis_list	pelvis_rotation	pelvis_tx	pelvis_ty	pelvis_tz	hip_flexion_r	hip_adduction_r	hip_rotation_r	knee_angle_r	knee_angle_r_beta	ankle_angle_r	subtalar_angle_r	mtp_angle_r	hip_flexion_l	hip_adduction_l	hip_rotation_l	knee_angle_l	knee_angle_l_beta	ankle_angle_l	subtalar_angle_l	mtp_angle_l	lumbar_extension	lumbar_bending	lumbar_rotation	arm_flex_r	arm_add_r	arm_rot_r	elbow_flex_r	pro_sup_r	wrist_flex_r	wrist_dev_r	arm_flex_l	arm_add_l	arm_rot_l	elbow_flex_l	pro_sup_l	wrist_flex_l	wrist_dev_l
7.599999999999926	-5.182095107186456	0.2364911293985456	19.88576682291288	0	0.9399999999999999	0	21.56330119758397	-8.210761007350463	-6.871933465221005	24.66256196017333	0.4304429081821313	0	0	0	21.56330119758397	-8.210761007350463	-6.871933465221005	24.66256196017333	0.4304429081821313	0	0	0	-1.590880046141346	-2.258500960374883	9.935706864014252	37.59099231419837	-42.52336247260693	-23.70362260621984	96.34820953163015	92.7410836384895	0	0	33.62807018107836	0.1365367061220514	-12.17673525844119	38.26865232973301	155.3897743239986	0	0
7.619999999999925	-5.170707414367736	0.2276572818066346	20.15912750976845	0	0.9399999999999999	0	21.58548238546247	-8.216101610874565	-6.87794065362383	24.68473725953548	0.4308299401686162	0	0	0	21.58548238546247	-8.216101610874565	-6.87794065362383	24.68473725953548	0.4308299401686162	0	0	0	-1.583086798448306	-2.265134316309148	9.785240427381646	39.06722655600307	-42.23056094262495	-22.8243552774736	93.68416896125196	93.12097154401238	0	0	33.63728026346824	0.219915394606816	-12.03937541029412	38.2208502851544	155.3909344940293	0	0
7.639999999999925	-5.162445059281129	0.2190900433893238	20.37131112832292	0	0.9399999999999999	0	21.60537826474826	-8.220888171136645	-6.883327927471919	24.70461327449722	0.4311768420718742	0	0	0	21.60537826474826	-8.220888171136645	-6.883327927471919	24.70461327449722	0.4311768420718742	0	0	0	-1.577316027130312	-2.270684490659485	9.624048031265975	40.59701613128433	-41.88807212783014	-21.80222507087293	91.22465695826111	93.90549711696369	0	0	33.64892083499897	0.2421245949118203	-12.04226146311929	38.17671601296427	155.4288814821956	0	0
7.659999999999925	-5.150832867020239	0.2011092567584251	20.57565848736456	0	0.9399999999999999	0	21.626390210391	-8.22594278660951	-6.889018743349605	24.72557656136108	0.4315427204496886	0	0	0	21.626390210391	-8.22594278660951	-6.889018743349605	24.72557656136108	0.4315427204496886	0	0	0	-1.572866230152997	-2.287643984996021	9.540585793500695	41.81828656044553	-41.60380812883544	-21.02562641007808	89.46584468447139	94.84321461870485	0	0	33.6469882653811	0.2628111206345529	-11.92507519386158	38.15950422259612	155.4239356415761	0	0
7.679999999999924	-5.127013149726545	0.1813903278384149	20.78411721229941	0	0.9399999999999999	0	21.64593146159256	-8.230635902429741	-6.894307615224434	24.74507163088008	0.4318829736007004	0	0	0	21.64593146159256	-8.230635902429741	-6.894307615224434	24.74507163088008	0.4318829736007004	0	0	0	-1.558335881992413	-2.311048977445015	9.46345045059919	42.85371924304172	-41.2414271133474	-20.28541671335588	87.52849380916096	96.07281774024048	0	0	33.65450864038841	0.30669437303028	-11.8664929447579	38.11138799523517	155.5075762173638	0	0
7.699999999999924	-5.127968949426125	0.1808824972838428	21.02679896372814	0	0.9399999999999999	0	21.66641783121719	-8.235552458111211	-6.899851496228392	24.76549354963589	0.4322394033225641	0	0	0	21.66641783121719	-8.235552458111211	-6.899851496228392	24.76549354963589	0.4322394033225641	0	0	0	-1.560869420890981	-2.303738306935658	9.260494013228998	44.84119491036838	-40.55353990931535	-18.46806453605183	84.84030110054661	97.44847326913698	0	0	33.65734971881209	0.325712376724317	-11.91016799817771	38.08168514592407	155.5514634717	0	0
7.719999999999923	-5.108831365527816	0.1779063940597353	21.13905786031972	0	0.9399999999999999	0	21.68646715100437	-8.240355942260988	-6.905273157622201	24.78548046031811	0.4325882407212707	0	0	0	21.68646715100437	-8.240355942260988	-6.905273157622201	24.78548046031811	0.4325882407212707	0	0	0	-1.54583655335088	-2.308572410482942	9.174508109007121	45.66348055478546	-40.18495613873991	-17.75463518950161	83.79524075316561	98.01339172652985	0	0	33.63444846390701	0.3194951115797524	-11.87849045193919	38.05761110305726	155.5316925122458	0	0
7.739999999999923	-5.09337450659748	0.1784751631246472	21.16522729932115	0	0.9399999999999999	0	21.70765130060048	-8.245394070902682	-6.910978107186618	24.80670068727828	0.4329586035497462	0	0	0	21.70765130060048	-8.245394070902682	-6.910978107186618	24.80670068727828	0.4329586035497462	0	0	0	-1.533701505373988	-2.310656957620584	9.148740949898295	45.67580299436234	-39.85335650760475	-17.6229288629499	82.08638735391769	98.27152458070505	0	0	33.58877964474432	0.290405669249442	-11.84343161470288	38.04502706570835	155.49738639398	0	0
7.759999999999923	-5.091751272260415	0.1809594793352901	21.25644570581369	0	0.9399999999999999	0	21.72461826231753	-8.249441806015902	-6.915557177635465	24.82362899536697	0.4332540582626858	0	0	0	21.72461826231753	-8.249441806015902	-6.915557177635465	24.82362899536697	0.4332540582626858	0	0	0	-1.532364118064479	-2.304614736702626	9.052922404538696	46.49234233503721	-39.49756199841386	-16.97245652187177	81.19273861041583	98.7220888011784	0	0	33.58216507873194	0.2988701335184829	-11.84050509652119	38.01348166995739	155.5077762683555	0	0
7.779999999999922	-5.086509260500121	0.1793106339925649	21.41199395516672	0	0.9399999999999999	0	21.74769901735321	-8.254899312535564	-6.921754951253289	24.84679727839918	0.4336584210836318	0	0	0	21.74769901735321	-8.254899312535564	-6.921754951253289	24.84679727839918	0.4336584210836318	0	0	0	-1.529439291878328	-2.299497483023401	8.851007730174972	47.24956265815348	-38.96634616072306	-16.31501992969985	79.52614475121051	99.59809590091903	0	0	33.54225055047061	0.2808063656330728	-11.67999695287182	37.98178275843846	155.4136521662536	0	0
7.799999999999922	-5.082120926433221	0.1871058390936952	21.5176069168619	0	0.9399999999999999	0	21.76757418474859	-8.259602584579287	-6.927096264432588	24.86670260848313	0.4340058346322931	0	0	0	21.76757418474859	-8.259602584579287	-6.927096264432588	24.86670260848313	0.4340058346322931	0	0	0	-1.523556060227732	-2.288871124685834	8.724964534327485	47.86466193458909	-38.60478289515545	-15.78989084693541	78.41778500018052	100.3193232342	0	0	33.5170227253376	0.2815901306039532	-11.58801953069294	37.95106729721571	155.3767172497905	0	0
7.819999999999921	-5.082658659423632	0.1860339153027081	21.6252335858888	0	0.9399999999999999	0	21.78436605700205	-8.263556461192019	-6.931596648903053	24.88356967657146	0.4343002205055924	0	0	0	21.78436605700205	-8.263556461192019	-6.931596648903053	24.88356967657146	0.4343002205055924	0	0	0	-1.525803761207684	-2.285561325330465	8.615693086346974	48.43379872150499	-38.26077237637556	-15.41898718528853	77.30902506889448	101.060852354545	0	0	33.49552607217156	0.2754370951817538	-11.48857062514994	37.94849242883379	155.3191275295691	0	0
